<?xml version="1.0" encoding="UTF-8"?>
<svg xmlns="http://www.w3.org/2000/svg" xmlns:xlink="http://www.w3.org/1999/xlink" viewBox="0 0 50 50" version="1.1" width="40px" height="40px">
<g id="surface1">
<path style=" " d="M 28.8125 0.03125 L 0.8125 5.34375 C 0.339844 5.433594 0 5.863281 0 6.34375 L 0 43.65625 C 0 44.136719 0.339844 44.566406 0.8125 44.65625 L 28.8125 49.96875 C 28.875 49.980469 28.9375 50 29 50 C 29.230469 50 29.445313 49.929688 29.625 49.78125 C 29.855469 49.589844 30 49.296875 30 49 L 30 1 C 30 0.703125 29.855469 0.410156 29.625 0.21875 C 29.394531 0.0273438 29.105469 -0.0234375 28.8125 0.03125 Z M 36.65625 7 C 35.050781 7 33.492188 7.082031 32 7.25 L 32 13.6875 C 33.597656 13.882813 35.320313 14 37.0625 14 C 45.441406 14 50 11.835938 50 10.71875 L 50 10.34375 C 49.9375 9.148438 44.878906 7 36.65625 7 Z M 50 13.5 C 47.273438 15.15625 42.152344 16 37.0625 16 C 35.324219 16 33.605469 15.90625 32 15.71875 L 32 24 C 33.597656 24.195313 35.320313 24.28125 37.0625 24.28125 C 45.441406 24.28125 50 22.117188 50 21 Z M 16.375 14.84375 C 18.328125 21.371094 20.195313 27.933594 22.125 34.46875 C 20.777344 34.378906 19.429688 34.277344 18.09375 34.15625 C 17.738281 32.699219 17.355469 31.230469 16.96875 29.78125 C 15.179688 29.773438 13.375 29.710938 11.59375 29.625 C 11.25 31.007813 10.917969 32.375 10.5625 33.75 C 9.421875 33.660156 8.261719 33.605469 7.125 33.53125 C 8.828125 27.394531 10.621094 21.261719 12.3125 15.125 C 13.671875 15.027344 15.011719 14.949219 16.375 14.84375 Z M 14.1875 18.3125 C 13.796875 21.082031 12.933594 23.742188 12.34375 26.46875 C 13.625 26.480469 14.898438 26.492188 16.1875 26.5 C 15.523438 23.773438 14.710938 21.074219 14.1875 18.3125 Z M 50 23.78125 C 47.273438 25.4375 42.152344 26.28125 37.0625 26.28125 C 35.324219 26.28125 33.605469 26.1875 32 26 L 32 33.6875 C 33.597656 33.882813 35.320313 34 37.0625 34 C 45.441406 34 50 31.835938 50 30.71875 Z M 50 33.5 C 47.273438 35.15625 42.152344 36 37.0625 36 C 35.324219 36 33.609375 35.90625 32 35.71875 L 32 42.75 C 33.492188 42.917969 35.050781 43 36.65625 43 C 44.929688 43 50 40.8125 50 39.625 Z "/>
</g>
</svg>
