<?xml version="1.0" encoding="iso-8859-1"?>
<!-- Generator: Adobe Illustrator 21.0.2, SVG Export Plug-In . SVG Version: 6.00 Build 0)  -->
<svg xmlns="http://www.w3.org/2000/svg" xmlns:xlink="http://www.w3.org/1999/xlink" version="1.1" id="Layer_1" x="0px" y="0px" viewBox="0 0 48 48" style="enable-background:new 0 0 48 48;" xml:space="preserve" width="48px" height="48px">
<path style="fill:rgba(255,255,255,0.3);" d="M24,10c7.72,0,14,6.28,14,14s-6.28,14-14,14s-14-6.28-14-14S16.28,10,24,10 M24,4  C12.955,4,4,12.955,4,24s8.955,20,20,20s20-8.955,20-20S35.045,4,24,4L24,4z"/>
<path style="fill:rgba(255,255,255);" d="M24,12c6.617,0,12,5.383,12,12s-5.383,12-12,12s-12-5.383-12-12S17.383,12,24,12 M24,8  C15.164,8,8,15.164,8,24s7.164,16,16,16s16-7.164,16-16S32.836,8,24,8L24,8z"/>
</svg>
