<?xml version="1.0" encoding="UTF-8"?>
<svg xmlns="http://www.w3.org/2000/svg" xmlns:xlink="http://www.w3.org/1999/xlink" viewBox="0 0 50 50" version="1.1" width="50px" height="50px">
<g id="surface1">
<path style=" " d="M 25 2 C 12.316406 2 2 12.316406 2 25 C 2 37.683594 12.316406 48 25 48 C 37.683594 48 48 37.683594 48 25 C 48 19.636719 46.113281 14.402344 42.6875 10.28125 L 41.5 8.875 L 33.84375 14.375 L 36.15625 17.625 L 40.71875 14.34375 C 42.835938 17.476563 44 21.191406 44 25 C 44 35.476563 35.476563 44 25 44 C 14.523438 44 6 35.476563 6 25 C 6 14.523438 14.523438 6 25 6 C 28.53125 6 32.0625 7.003906 35 8.84375 L 38.3125 6.21875 C 34.53125 3.488281 29.796875 2 25 2 Z M 25 16 C 20.039063 16 16 20.039063 16 25 C 16 29.964844 20.039063 34 25 34 C 29.964844 34 34 29.964844 34 25 C 34 20.039063 29.964844 16 25 16 Z M 25 22 C 26.65625 22 28 23.34375 28 25 C 28 26.65625 26.65625 28 25 28 C 23.34375 28 22 26.65625 22 25 C 22 23.34375 23.34375 22 25 22 Z "/>
</g>
</svg>
