<?xml version="1.0" encoding="UTF-8"?>
<svg xmlns="http://www.w3.org/2000/svg" xmlns:xlink="http://www.w3.org/1999/xlink" viewBox="0 0 50 50" version="1.1" width="40px" height="40px">
<g id="surface1">
<path style=" " d="M 28.8125 0.03125 L 0.8125 5.34375 C 0.339844 5.433594 0 5.863281 0 6.34375 L 0 43.65625 C 0 44.136719 0.339844 44.566406 0.8125 44.65625 L 28.8125 49.96875 C 28.875 49.980469 28.9375 50 29 50 C 29.230469 50 29.445313 49.929688 29.625 49.78125 C 29.855469 49.589844 30 49.296875 30 49 L 30 1 C 30 0.703125 29.855469 0.410156 29.625 0.21875 C 29.394531 0.0273438 29.105469 -0.0234375 28.8125 0.03125 Z M 32 5 L 32 15 L 38 15 L 38 17 L 32 17 L 32 20 L 38 20 L 38 22 L 32 22 L 32 25 L 38 25 L 38 27 L 32 27 L 32 30 L 38 30 L 38 32 L 32 32 L 32 35 L 38 35 L 38 37 L 32 37 L 32 46 L 44 46 C 44.554688 46 45 45.554688 45 45 L 45 18 L 48 18 C 49.101563 18 50 17.101563 50 16 L 50 7 C 50 5.898438 49.101563 5 48 5 Z M 6.53125 15.6875 L 10.53125 15.6875 L 17.03125 27 C 17.328125 27.507813 17.625 28 17.875 28.5 L 17.90625 28.5 C 17.84375 28.066406 17.8125 27.207031 17.8125 25.9375 L 17.8125 15.6875 L 21.3125 15.6875 L 21.3125 34.25 L 17.5625 34.25 L 10.8125 22.59375 C 10.414063 21.910156 10.152344 21.378906 10 21.03125 L 9.9375 21.03125 C 10 21.6875 10.03125 22.683594 10.03125 24.03125 L 10.03125 34.25 L 6.53125 34.25 Z M 47 20 L 47 32 L 48 32 C 49.101563 32 50 31.101563 50 30 L 50 22 C 50 20.898438 49.101563 20 48 20 Z M 47 34 L 47 46 L 48 46 C 49.101563 46 50 45.101563 50 44 L 50 36 C 50 34.898438 49.101563 34 48 34 Z "/>
</g>
</svg>
