<?xml version="1.0" encoding="UTF-8"?>
<svg xmlns="http://www.w3.org/2000/svg" xmlns:xlink="http://www.w3.org/1999/xlink" viewBox="0 0 50 50" version="1.1" width="26px" height="26px">
<g id="surface1">
<path style=" " d="M 0 4 L 0 46 L 50 46 L 50 4 Z M 2 6 L 48 6 L 48 44 L 2 44 Z M 4 8 L 4 30.6875 L 17.3125 18.28125 C 17.507813 18.097656 17.769531 17.972656 18.03125 18 C 18.296875 18.011719 18.570313 18.117188 18.75 18.3125 L 29.03125 29.5625 L 33.28125 25.28125 C 33.671875 24.890625 34.328125 24.890625 34.71875 25.28125 L 46 36.59375 L 46 8 Z M 35 15 C 36.65625 15 38 16.34375 38 18 C 38 19.65625 36.65625 21 35 21 C 33.34375 21 32 19.65625 32 18 C 32 16.34375 33.34375 15 35 15 Z M 17.9375 20.40625 L 4 33.4375 L 4 42 L 46 42 L 46 39.40625 L 34 27.40625 L 26.40625 35 L 23.59375 35 L 27.625 30.96875 Z "/>
</g>
</svg>
