<?xml version="1.0" encoding="utf-8"?>
<!-- Generator: Adobe Illustrator 15.0.0, SVG Export Plug-In . SVG Version: 6.00 Build 0)  -->
<!DOCTYPE svg PUBLIC "-//W3C//DTD SVG 1.1//EN" "http://www.w3.org/Graphics/SVG/1.1/DTD/svg11.dtd">
<svg xmlns="http://www.w3.org/2000/svg" xmlns:xlink="http://www.w3.org/1999/xlink" version="1.1" x="0px" y="0px" width="55px" height="55px" viewBox="0 0 48 48" enable-background="new 0 0 48 48" xml:space="preserve">
<path fill="#FF8A65" d="M41,10H25v28h16c0.553,0,1-0.447,1-1V11C42,10.447,41.553,10,41,10z"/>
<g>
	<rect x="24" y="29" fill="#FBE9E7" width="14" height="2"/>
	<rect x="24" y="33" fill="#FBE9E7" width="14" height="2"/>
	<path fill="#FBE9E7" d="M30,15c-3.313,0-6,2.687-6,6s2.687,6,6,6s6-2.687,6-6h-6V15z"/>
	<path fill="#FBE9E7" d="M32,13v6h6C38,15.687,35.313,13,32,13z"/>
</g>
<polygon fill="#E64A19" points="27,42 6,38 6,10 27,6 "/>
<path fill="#FFFFFF" d="M16.828,17H12v14h3v-4.823h1.552c1.655,0,2.976-0.436,3.965-1.304c0.988-0.869,1.484-2.007,1.482-3.412  C22,18.487,20.275,17,16.828,17z M16.294,23.785H15v-4.364h1.294c1.641,0,2.461,0.72,2.461,2.158  C18.755,23.051,17.935,23.785,16.294,23.785z"/>
</svg>
