<?xml version="1.0" encoding="UTF-8"?>
<svg xmlns="http://www.w3.org/2000/svg" xmlns:xlink="http://www.w3.org/1999/xlink" viewBox="0 0 32 32" version="1.1" width="16px" height="16px">
<g id="surface1">
<path style=" " d="M 13.769531 4.011719 C 13.53125 4.027344 13.289063 4.078125 13.050781 4.15625 L 11.050781 4.820313 C 9.828125 5.230469 9 6.382813 9 7.667969 L 9 10.957031 L 5 11.519531 L 5 26.480469 L 23 29 L 27 27.679688 L 27 10.4375 L 23 9 L 21 9.28125 L 21 8 C 21 6.488281 19.855469 5.285156 18.476563 5.046875 C 18.015625 4.96875 17.53125 4.996094 17.050781 5.15625 L 16.480469 5.347656 C 16.015625 4.667969 15.289063 4.1875 14.476563 4.046875 C 14.246094 4.007813 14.011719 3.996094 13.769531 4.011719 Z M 13.933594 6 C 14.507813 5.945313 15 6.378906 15 7 L 15 10.121094 L 11 10.679688 L 11 7.667969 C 11 7.234375 11.269531 6.859375 11.683594 6.71875 L 13.683594 6.054688 C 13.769531 6.023438 13.851563 6.007813 13.933594 6 Z M 17.933594 7 C 18.507813 6.949219 19 7.378906 19 8 L 19 9.5625 L 17 9.839844 L 17 7.28125 L 17.683594 7.054688 C 17.769531 7.023438 17.851563 7.007813 17.933594 7 Z M 22.785156 11.046875 L 25 11.84375 L 25 26.234375 L 22.816406 26.953125 L 7 24.738281 L 7 13.261719 Z M 19 13.597656 L 14 14.300781 L 14 18 L 19 18 Z M 13 14.4375 L 9 15 L 9 18 L 13 18 Z M 9 19 L 9 22 L 13 22.5625 L 13 19 Z M 14 19 L 14 22.699219 L 19 23.402344 L 19 19 Z "/>
</g>
</svg>
